<svg viewBox="0 0 460.63 460.63"><path style="fill:#fff;stroke-width:3.92070746" d="M88.468 325.336c-3.931 0-7.19 3.259-7.19 7.19v8.492h-.927c-5.302-.074-5.302 7.917 0 7.842h.926v8.492c0 3.931 3.26 7.19 7.19 7.19h16.985c3.932 0 7.19-3.259 7.19-7.19v-8.492h13.08l-6.991 6.991c-3.85 3.696 1.848 9.393 5.544 5.545l13.684-13.684a3.931 3.931 0 000-5.545l-13.684-13.684a3.922 3.922 0 00-2.81-1.187c-3.519 0-5.256 4.277-2.734 6.731l6.991 6.992h-13.079v-8.492c0-3.932-3.26-7.191-7.19-7.191H88.467zm0 5.88h16.984c.775 0 1.31.535 1.31 1.31v24.826c0 .775-.535 1.31-1.31 1.31H88.468c-.775 0-1.31-.535-1.31-1.31v-24.826c0-.775.535-1.31 1.31-1.31z"/><path d="M230.402 193.939c-11.805 0-21.811 8.003-24.912 18.846-2.696-5.751-8.536-9.78-15.264-9.78-9.251 0-16.857 7.605-16.857 16.856 0 9.252 7.606 16.861 16.857 16.861 6.728 0 12.568-4.032 15.264-9.784 3.1 10.844 13.107 18.85 24.912 18.85 11.718 0 21.673-7.885 24.853-18.607 2.745 5.622 8.514 9.541 15.146 9.541 9.252 0 16.86-7.609 16.86-16.86 0-9.252-7.608-16.858-16.86-16.858-6.632 0-12.4 3.917-15.146 9.538-3.18-10.72-13.135-18.603-24.853-18.603zm0 9.895c8.912 0 16.03 7.116 16.03 16.027a15.956 15.956 0 01-16.03 16.031 15.954 15.954 0 01-16.027-16.03 15.951 15.951 0 0116.027-16.028zm-40.176 9.067c3.905 0 6.965 3.057 6.965 6.961 0 3.905-3.06 6.965-6.965 6.965-3.904 0-6.961-3.06-6.961-6.965 0-3.904 3.057-6.961 6.961-6.961zm80.175 0c3.904 0 6.965 3.057 6.965 6.961 0 3.905-3.06 6.965-6.965 6.965s-6.962-3.06-6.962-6.965c0-3.904 3.057-6.961 6.962-6.961z" style="color:#000;font-style:normal;font-variant:normal;font-weight:400;font-stretch:normal;font-size:medium;line-height:normal;font-family:sans-serif;text-indent:0;text-align:start;text-decoration:none;text-decoration-line:none;text-decoration-style:solid;text-decoration-color:#000;letter-spacing:normal;word-spacing:normal;text-transform:none;writing-mode:lr-tb;direction:ltr;baseline-shift:baseline;text-anchor:start;white-space:normal;clip-rule:nonzero;display:inline;overflow:visible;visibility:visible;opacity:1;isolation:auto;mix-blend-mode:normal;color-interpolation:sRGB;color-interpolation-filters:linearRGB;solid-color:#000;solid-opacity:1;fill:#fff;fill-opacity:1;fill-rule:nonzero;stroke:none;stroke-width:5.56589985;stroke-linecap:butt;stroke-linejoin:miter;stroke-miterlimit:10;stroke-dasharray:none;stroke-dashoffset:0;stroke-opacity:1;color-rendering:auto;image-rendering:auto;shape-rendering:auto;text-rendering:auto;enable-background:accumulate"/><path style="font-style:normal;font-variant:normal;font-weight:400;font-stretch:normal;font-size:medium;line-height:1;font-family:MuseoSansW01-Rounded100;-inkscape-font-specification:MuseoSansW01-Rounded100;letter-spacing:-.71249998px;word-spacing:0;opacity:1;fill:#fff;fill-opacity:1;stroke:none;stroke-width:.9375" d="M258.873 254.006c0-.205.103-.308.308-.308h.162c.205 0 .308.103.308.308v5.64h7.089v-5.64c0-.205.102-.308.307-.308h.163c.204 0 .307.103.307.308v12.04c0 .204-.103.306-.307.306h-.163c-.205 0-.34-.105-.307-.307v-5.676h-7.09v5.676c0 .205-.102.307-.307.307h-.162c-.205 0-.308-.102-.308-.307zm11.143 3.307c-.205 0-.308.103-.308.308v5.224a3.723 3.723 0 003.724 3.724 3.724 3.724 0 003.725-3.724v-5.224c0-.205-.103-.308-.308-.308h-.144c-.205 0-.308.103-.308.308v5.152c0 .025-.004.047-.004.072h.004a3.038 3.038 0 01-.132.877 2.95 2.95 0 01-.386.796 2.975 2.975 0 01-1.372 1.09 3.002 3.002 0 01-1.37.186 2.985 2.985 0 01-1.125-.348 2.96 2.96 0 01-.705-.536 2.964 2.964 0 01-.517-.72 2.956 2.956 0 01-.322-1.346h.004c0-.024-.004-.046-.004-.07v-5.154c0-.204-.102-.307-.307-.307zm10.069 4.538q0 .76.18 1.483.2.705.597 1.265.398.542.976.886.597.343 1.392.343.67 0 1.248-.271.596-.271 1.03-.777.434-.506.687-1.248.253-.74.253-1.699 0-.922-.235-1.645-.235-.741-.65-1.265-.417-.525-.995-.796-.578-.289-1.265-.289-.633 0-1.212.235-.578.217-1.03.705-.434.488-.705 1.247-.271.76-.271 1.826zm-.741-7.845q0-.308.307-.308h.145q.307 0 .307.308v4.392q0 .163-.018.308 0 .126-.018.217l-.036.217h.036q.253-.56.705-1.013.38-.38.994-.705.633-.325 1.573-.325.904 0 1.627.343.723.344 1.229.977.506.614.777 1.5.271.868.271 1.916 0 1.085-.307 1.952-.29.868-.832 1.5-.542.615-1.283.959-.741.325-1.627.325-.868 0-1.464-.307-.597-.325-.958-.705-.452-.452-.705-1.03h-.036q.018.09.036.217.018.108.018.253.018.144.018.325v.723q0 .307-.307.307h-.145q-.307 0-.307-.307z"/><path d="M188.616 257.341c2.388 0 3.723 1.7 3.723 4.25a.45.45 0 01-.445.446h-6.435c.04 2.266 1.619 3.561 3.44 3.561a3.772 3.772 0 002.348-.81c.242-.161.445-.12.566.122l.122.203c.121.202.08.404-.122.566a5.016 5.016 0 01-2.954.972c-2.631 0-4.655-1.903-4.655-4.655.04-2.914 1.983-4.654 4.412-4.654zm2.469 3.805c-.081-1.861-1.215-2.792-2.51-2.792-1.497 0-2.792.971-3.076 2.792zm13.207-2.509v-3.116c0-.284.162-.446.445-.446h.324c.283 0 .404.162.404.446v2.104h1.822c.283 0 .445.162.445.445v.122c0 .283-.162.404-.445.404h-1.822v4.453c0 2.064 1.255 2.306 1.943 2.347.364.04.486.121.486.445v.243c0 .283-.122.405-.486.405-1.943 0-3.116-1.174-3.116-3.279zm9.47-1.296c1.538 0 2.509.648 2.954 1.013.203.162.243.364.04.607l-.12.202c-.163.243-.365.243-.608.081-.405-.283-1.174-.81-2.226-.81-1.943 0-3.48 1.458-3.48 3.603 0 2.104 1.537 3.561 3.48 3.561a3.743 3.743 0 002.51-.93c.242-.162.404-.122.566.12l.121.163c.122.243.081.405-.121.607a4.98 4.98 0 01-3.157 1.133c-2.63 0-4.654-1.902-4.654-4.654.04-2.752 2.064-4.695 4.695-4.695zm5.383-2.873c0-.283-.162-.445.121-.445h.324c.283 0 .728.162.728.445v9.673c0 1.134.526 1.255.931 1.295.203 0 .364.122.364.405v.283c0 .284-.121.446-.445.446-.728 0-2.023-.243-2.023-2.186zm8.297 2.873c2.59 0 4.694 1.984 4.694 4.615 0 2.67-2.104 4.695-4.694 4.695s-4.695-2.024-4.695-4.695c0-2.631 2.104-4.614 4.695-4.614zm0 8.257c1.902 0 3.44-1.538 3.44-3.642 0-2.024-1.538-3.521-3.44-3.521a3.49 3.49 0 00-3.481 3.52c.04 2.065 1.578 3.643 3.48 3.643zm20.195-8.257c2.146 0 2.915 1.782 2.915 1.782h.04s-.04-.284-.04-.688v-4.007c0-.284-.122-.445.161-.445h.324c.284 0 .729.161.729.445v11.535c0 .283-.122.445-.405.445h-.283c-.284 0-.446-.122-.446-.405v-.688c0-.324.081-.567.081-.567h-.04s-.769 1.862-3.076 1.862c-2.388 0-3.885-1.902-3.885-4.654-.081-2.752 1.578-4.614 3.926-4.614zm.04 8.257c1.498 0 2.874-1.052 2.874-3.602 0-1.821-.93-3.561-2.833-3.561-1.578 0-2.873 1.295-2.873 3.561.04 2.186 1.174 3.602 2.833 3.602zm-6.353-8.054H241c-.283 0-.445.162-.445.445v4.898c0 1.376-.89 2.63-2.631 2.63-1.7 0-2.63-1.254-2.63-2.63v-4.898c0-.283-.163-.445-.446-.445h-.324c-.283 0-.404.162-.404.445v5.221c0 2.307 1.7 3.44 3.804 3.44 2.105 0 3.804-1.133 3.804-3.44v-5.22c.04-.284-.121-.446-.404-.446zm-40.065-.066c-.1.016-.194.082-.285.19l-1.638 1.953-1.226 1.46-1.856-2.212-1.008-1.2a.45.45 0 00-.3-.178.45.45 0 00-.327.123l-.248.208c-.217.182-.206.383-.024.6l1.639 1.953 1.358 1.619-1.99 2.37a.018.018 0 00-.003.006l-1.004 1.196c-.182.217-.162.445.055.627l.248.207c.217.182.414.137.596-.08l1.638-1.953 1.226-1.46 1.856 2.212.004.004 1.004 1.197c.182.217.41.236.627.054l.248-.208c.217-.182.206-.383.024-.6l-1.639-1.953-1.359-1.619 1.99-2.37a.018.018 0 00.004-.005l1.004-1.196c.182-.217.162-.446-.055-.628l-.248-.208c-.109-.091-.212-.125-.311-.11zm-27.485-3.657c-.283 0-.405.162-.405.445v11.737c0 .284.122.445.405.445h.325c.283 0 .444-.161.444-.445v-9.747l6.407 9.944c.028.044.058.074.089.106.009.01.016.022.026.031.028.025.058.039.087.054.016.009.03.02.047.027.013.004.026.003.04.006.045.011.09.023.145.023h.323c.283 0 .404-.16.404-.444v-11.737c0-.283-.121-.446-.404-.446h-.323c-.284 0-.446.163-.446.446v9.748l-6.408-9.945c-.022-.034-.048-.056-.072-.082-.074-.104-.192-.167-.36-.167z" style="fill:#fff;fill-opacity:1;stroke-width:.47038522"/><path style="fill:#fff;stroke-width:1.87512743" d="M201.06 359.144a3.327 3.327 0 00-3.333 3.335v30.838a3.323 3.323 0 003.333 3.33h53.336a3.324 3.324 0 003.334-3.33V362.48a3.327 3.327 0 00-3.334-3.335zm2.813 3.856l22.815 22.815h1.98L251.584 363l2.292 2.292-13.647 13.855 10.313 10.521-2.292 2.292-10.521-10.521-7.605 7.708h-4.792l-7.604-7.706-10.522 10.624-2.292-2.396 10.418-10.522-13.751-13.854z"/><path style="fill:#fff" d="M381.37 212.698a4.03 4.03 0 00-4.04 4.04v8.079c0 2.238 1.802 4.04 4.04 4.04s4.04-1.802 4.04-4.04v-8.08a4.03 4.03 0 00-4.04-4.04zm32.317 0a4.03 4.03 0 00-4.04 4.04v8.079c0 2.238 1.802 4.04 4.04 4.04s4.04-1.802 4.04-4.04v-8.08a4.03 4.03 0 00-4.04-4.04zm-26.257 8.079v4.04c0 3.357-2.703 6.059-6.06 6.059s-6.06-2.702-6.06-6.06v-3.787a8.065 8.065 0 00-6.058 7.827v32.317a8.062 8.062 0 008.079 8.08h40.396a8.062 8.062 0 008.079-8.08v-32.317a8.065 8.065 0 00-6.06-7.827v3.788c0 3.357-2.702 6.059-6.059 6.059s-6.06-2.702-6.06-6.06v-4.039zm-11.93 18.178h44.057a.182.182 0 01.188.19v23.858a.182.182 0 01-.188.19H375.5a.182.182 0 01-.19-.19v-23.858a.182.182 0 01.19-.188z"/><path style="color:#000;text-indent:0;text-transform:none;fill:#fff;stroke-width:1.83094394" d="M342.905 323.741c-4.077 0-7.535 2.982-7.535 6.829.029 1.216.138 2.716.863 5.887v.078l.079.079c.233.667.572 1.049 1.02 1.57.448.52.983 1.133 1.491 1.648l.157.157c.101.439.223.91.314 1.334.242 1.127.218 1.925.157 2.198-1.752.615-3.931 1.348-5.887 2.198-1.098.477-2.091.903-2.904 1.412-.812.51-1.62.895-1.883 2.041a1.029 1.029 0 000 .157 537.133 537.133 0 01-.942 8.163 1.288 1.288 0 00.628 1.256c3.55 1.918 9.004 2.69 14.441 2.669 5.437-.021 10.848-.839 14.285-2.669.433-.244.692-.763.628-1.256-.095-.731-.211-2.38-.314-4.003-.103-1.622-.192-3.218-.314-4.16a1.263 1.263 0 00-.314-.628c-1.092-1.303-2.723-2.1-4.63-2.904-1.742-.733-3.784-1.495-5.809-2.355-.113-.252-.226-.987 0-2.119.06-.304.156-.63.236-.942.19-.213.338-.387.55-.628.449-.513.932-1.051 1.334-1.57.401-.518.73-.962.941-1.57l.079-.078c.82-3.311.82-4.693.863-5.887v-.078c0-3.848-3.458-6.829-7.535-6.829zm21.554-6.266c-5.944 0-10.986 4.346-10.986 9.956.042 1.772.2 3.959 1.259 8.582v.114l.114.115c.34.973.834 1.53 1.488 2.289.654.759 1.433 1.652 2.174 2.403l.23.229c.146.64.324 1.327.457 1.945.353 1.643.317 2.806.229 3.204-2.554.897-5.732 1.965-8.583 3.204-1.6.696-3.049 1.317-4.234 2.06-1.185.743-2.363 1.304-2.746 2.975a1.458 1.458 0 000 .23c-.374 3.436-.94 8.49-1.373 11.9a1.878 1.878 0 00.915 1.831c5.177 2.796 13.129 3.922 21.056 3.89 7.927-.03 15.815-1.222 20.827-3.89a1.878 1.878 0 00.915-1.83c-.138-1.067-.307-3.471-.457-5.837-.15-2.366-.28-4.693-.458-6.065a1.844 1.844 0 00-.458-.915c-1.592-1.901-3.97-3.063-6.751-4.235-2.54-1.069-5.516-2.18-8.468-3.433-.166-.368-.33-1.438 0-3.09.088-.443.227-.917.343-1.372.277-.311.494-.565.801-.916.656-.748 1.36-1.533 1.945-2.289.586-.755 1.065-1.403 1.374-2.288l.114-.115c1.196-4.827 1.197-6.841 1.259-8.582v-.115c0-5.609-5.042-9.955-10.986-9.955z"/><g style="fill:#fff" transform="translate(200.223 57.106) scale(1.7191)"><path style="fill:#fff" d="M2.8 4a1.3 1.3 0 00-1.3 1.3v22.4c0 .6.7 1.3 1.3 1.3h26.4c.6 0 1.3-.7 1.3-1.3V5.3c0-.6-.7-1.3-1.3-1.3zm.7 2h25v19h-25z"/><circle style="fill:#fff" cx="8.5" cy="11.2" r="3"/><path style="fill:#fff" d="M26.4 14.5l-4.7 6.2L20 23l-1.6-1.8-4.5-4.6-6 5.7-4.7 4.3h26.2v-8.7z"/></g><path style="fill:#fff;stroke-width:.4653461" d="M107.736 104.098a23.265 23.265 0 00-23.265 23.266 23.265 23.265 0 0023.265 23.265 23.265 23.265 0 0012.068-3.403c2.86 1.136 9.264 4.507 10.788 3.05 1.593-1.52-1.87-8.68-2.7-11.34A23.265 23.265 0 00131 127.364a23.265 23.265 0 00-23.264-23.265zm.002 8.845a14.426 14.426 0 0114.425 14.426 14.426 14.426 0 01-14.425 14.425 14.426 14.426 0 01-14.426-14.425 14.426 14.426 0 0114.426-14.426z"/><path style="fill:#fff;stroke-width:3.71093631" d="M36.676 218.71c-.928 0-1.856.928-1.856 1.856v40.82c0 .965.891 1.856 1.856 1.856h48.242c.965 0 1.856-.894 1.856-1.856v-33.398c0-.928-.928-1.855-1.856-1.855H60.797l-7.422-7.422zm32.47 12.989a4.639 4.639 0 014.64 4.639 4.639 4.639 0 01-4.64 4.638 4.639 4.639 0 01-2.971-1.08l-9.096 4.552a4.639 4.639 0 01.008.24 4.639 4.639 0 01-.016.239l9.103 4.551a4.639 4.639 0 012.972-1.08 4.639 4.639 0 014.639 4.64 4.639 4.639 0 01-4.64 4.638 4.639 4.639 0 01-4.638-4.639 4.639 4.639 0 01.016-.237l-9.103-4.554a4.639 4.639 0 01-2.972 1.08 4.639 4.639 0 01-4.639-4.639 4.639 4.639 0 014.639-4.638 4.639 4.639 0 012.972 1.08l9.096-4.552a4.639 4.639 0 01-.008-.24 4.639 4.639 0 014.639-4.638z"/></svg>